<svg xmlns="http://www.w3.org/2000/svg" width="12" height="10" viewBox="0 0 12 10"><g><g><path fill="#1f4ba5" d="M12 3a1 1 0 0 1-1.707.707L10 3.414V9a1 1 0 0 1-2 0V3.414l-.293.293a1 1 0 0 1-1.414-1.414l2-2a.996.996 0 0 1 1.414 0l2 2c.18.18.293.43.293.707zM4 6.585l.293-.293a1 1 0 0 1 1.414 1.415l-2 2a.997.997 0 0 1-1.414 0l-2-2a1 1 0 0 1 1.414-1.415L2 6.585V1a1 1 0 0 1 2 0z"/><path fill="#d5d5d5" d="M12 3a1 1 0 0 1-1.707.707L10 3.414V9a1 1 0 0 1-2 0V3.414l-.293.293a1 1 0 0 1-1.414-1.414l2-2a.996.996 0 0 1 1.414 0l2 2c.18.18.293.43.293.707zM4 6.585l.293-.293a1 1 0 0 1 1.414 1.415l-2 2a.997.997 0 0 1-1.414 0l-2-2a1 1 0 0 1 1.414-1.415L2 6.585V1a1 1 0 0 1 2 0z"/></g></g></svg>