<svg xmlns="http://www.w3.org/2000/svg" width="14" height="15" viewBox="0 0 14 15"><g><g><path fill="#222" d="M13 15a1 1 0 0 1-1-1.001 4.973 4.973 0 0 0-1.587-3.637C9.518 11.37 8.323 12 6.999 12c-1.323 0-2.519-.629-3.413-1.637A4.972 4.972 0 0 0 2 14a1 1 0 0 1-2 0c0-2.16.998-4.066 2.535-5.35A6.92 6.92 0 0 1 2 5.999c0-3.314 2.238-6 5-6 2.76 0 5 2.686 5 6 0 .956-.204 1.848-.536 2.65C13.001 9.933 14 11.839 14 13.999a1 1 0 0 1-1 1zM7 1.998c-1.657 0-3 1.79-3 4s1.343 4 3 4c1.656 0 3-1.79 3-4s-1.344-4-3-4z"/></g></g></svg>